<svg width="42" height="42" viewBox="0 0 42 42" fill="none" xmlns="http://www.w3.org/2000/svg">
<circle cx="21" cy="21" r="20" fill="#29B029"/>
<mask id="mask0_284_3339" style="mask-type:luminance" maskUnits="userSpaceOnUse" x="11" y="9" width="20" height="24">
<path d="M16 11V31M13 11.5V16.5C13 19 16 19 16 19C16 19 19 19 19 16.5V11.5M26 19V31" stroke="white" stroke-width="4" stroke-linecap="round" stroke-linejoin="round"/>
<path d="M29 15C29 17.209 27.657 19 26 19C24.343 19 23 17.209 23 15C23 12.791 24.343 11 26 11C27.657 11 29 12.791 29 15Z" fill="white" stroke="white" stroke-width="4" stroke-linecap="round" stroke-linejoin="round"/>
</mask>
<g mask="url(#mask0_284_3339)">
<path d="M9 9H33V33H9V9Z" fill="white"/>
</g>
<mask id="path-5-outside-1_284_3339" maskUnits="userSpaceOnUse" x="0" y="0" width="42" height="42" fill="black">
<rect fill="white" width="42" height="42"/>
<path d="M41 21C41 32.0457 32.0457 41 21 41C9.9543 41 1 32.0457 1 21C1 9.9543 9.9543 1 21 1C32.0457 1 41 9.9543 41 21ZM3 21C3 30.9411 11.0589 39 21 39C30.9411 39 39 30.9411 39 21C39 11.0589 30.9411 3 21 3C11.0589 3 3 11.0589 3 21Z"/>
</mask>
<path d="M41 21C41 32.0457 32.0457 41 21 41C9.9543 41 1 32.0457 1 21C1 9.9543 9.9543 1 21 1C32.0457 1 41 9.9543 41 21ZM3 21C3 30.9411 11.0589 39 21 39C30.9411 39 39 30.9411 39 21C39 11.0589 30.9411 3 21 3C11.0589 3 3 11.0589 3 21Z" fill="white" fill-opacity="0.2"/>
<path d="M41 21C41 32.0457 32.0457 41 21 41C9.9543 41 1 32.0457 1 21C1 9.9543 9.9543 1 21 1C32.0457 1 41 9.9543 41 21ZM3 21C3 30.9411 11.0589 39 21 39C30.9411 39 39 30.9411 39 21C39 11.0589 30.9411 3 21 3C11.0589 3 3 11.0589 3 21Z" stroke="#29B029" mask="url(#path-5-outside-1_284_3339)"/>
<mask id="path-6-outside-2_284_3339" maskUnits="userSpaceOnUse" x="35" y="20" width="7" height="13" fill="black">
<rect fill="white" x="35" y="20" width="7" height="13"/>
<path d="M40 21C40.5523 21 41.0026 21.4481 40.975 21.9997C40.798 25.5377 39.6841 28.9659 37.7477 31.9323C37.4458 32.3947 36.8181 32.4925 36.3713 32.1679C35.9245 31.8433 35.828 31.2193 36.1274 30.7552C37.8185 28.1328 38.799 25.1151 38.9722 21.9995C39.0029 21.4481 39.4477 21 40 21Z"/>
</mask>
<path d="M40 21C40.5523 21 41.0026 21.4481 40.975 21.9997C40.798 25.5377 39.6841 28.9659 37.7477 31.9323C37.4458 32.3947 36.8181 32.4925 36.3713 32.1679C35.9245 31.8433 35.828 31.2193 36.1274 30.7552C37.8185 28.1328 38.799 25.1151 38.9722 21.9995C39.0029 21.4481 39.4477 21 40 21Z" fill="white"/>
<path d="M40 21C40.5523 21 41.0026 21.4481 40.975 21.9997C40.798 25.5377 39.6841 28.9659 37.7477 31.9323C37.4458 32.3947 36.8181 32.4925 36.3713 32.1679C35.9245 31.8433 35.828 31.2193 36.1274 30.7552C37.8185 28.1328 38.799 25.1151 38.9722 21.9995C39.0029 21.4481 39.4477 21 40 21Z" stroke="#29B029" mask="url(#path-6-outside-2_284_3339)"/>
</svg>
