<svg width="42" height="42" viewBox="0 0 42 42" fill="none" xmlns="http://www.w3.org/2000/svg">
<circle cx="21" cy="21" r="20" fill="#29B029"/>
<path d="M27.92 15.01C27.72 14.42 27.16 14 26.5 14H15.5C14.84 14 14.29 14.42 14.08 15.01L12 21V28.5C12 29.33 12.67 30 13.5 30C14.33 30 15 29.33 15 28.5V28H27V28.5C27 29.32 27.67 30 28.5 30C29.32 30 30 29.33 30 28.5V21L27.92 15.01ZM16.5 25C15.67 25 15 24.33 15 23.5C15 22.67 15.67 22 16.5 22C17.33 22 18 22.67 18 23.5C18 24.33 17.33 25 16.5 25ZM25.5 25C24.67 25 24 24.33 24 23.5C24 22.67 24.67 22 25.5 22C26.33 22 27 22.67 27 23.5C27 24.33 26.33 25 25.5 25ZM14.81 19L15.85 16H26.14L27.18 19H14.81Z" fill="white"/>
<mask id="path-3-outside-1_284_3326" maskUnits="userSpaceOnUse" x="0" y="0" width="42" height="42" fill="black">
<rect fill="white" width="42" height="42"/>
<path d="M41 21C41 32.0457 32.0457 41 21 41C9.9543 41 1 32.0457 1 21C1 9.9543 9.9543 1 21 1C32.0457 1 41 9.9543 41 21ZM3 21C3 30.9411 11.0589 39 21 39C30.9411 39 39 30.9411 39 21C39 11.0589 30.9411 3 21 3C11.0589 3 3 11.0589 3 21Z"/>
</mask>
<path d="M41 21C41 32.0457 32.0457 41 21 41C9.9543 41 1 32.0457 1 21C1 9.9543 9.9543 1 21 1C32.0457 1 41 9.9543 41 21ZM3 21C3 30.9411 11.0589 39 21 39C30.9411 39 39 30.9411 39 21C39 11.0589 30.9411 3 21 3C11.0589 3 3 11.0589 3 21Z" fill="white" fill-opacity="0.2"/>
<path d="M41 21C41 32.0457 32.0457 41 21 41C9.9543 41 1 32.0457 1 21C1 9.9543 9.9543 1 21 1C32.0457 1 41 9.9543 41 21ZM3 21C3 30.9411 11.0589 39 21 39C30.9411 39 39 30.9411 39 21C39 11.0589 30.9411 3 21 3C11.0589 3 3 11.0589 3 21Z" stroke="#29B029" mask="url(#path-3-outside-1_284_3326)"/>
<mask id="path-4-outside-2_284_3326" maskUnits="userSpaceOnUse" x="35" y="20" width="7" height="13" fill="black">
<rect fill="white" x="35" y="20" width="7" height="13"/>
<path d="M40 21C40.5523 21 41.0026 21.4481 40.975 21.9997C40.798 25.5377 39.6841 28.9659 37.7477 31.9323C37.4458 32.3947 36.8181 32.4925 36.3713 32.1679C35.9245 31.8433 35.828 31.2193 36.1274 30.7552C37.8185 28.1328 38.799 25.1151 38.9722 21.9995C39.0029 21.4481 39.4477 21 40 21Z"/>
</mask>
<path d="M40 21C40.5523 21 41.0026 21.4481 40.975 21.9997C40.798 25.5377 39.6841 28.9659 37.7477 31.9323C37.4458 32.3947 36.8181 32.4925 36.3713 32.1679C35.9245 31.8433 35.828 31.2193 36.1274 30.7552C37.8185 28.1328 38.799 25.1151 38.9722 21.9995C39.0029 21.4481 39.4477 21 40 21Z" fill="white"/>
<path d="M40 21C40.5523 21 41.0026 21.4481 40.975 21.9997C40.798 25.5377 39.6841 28.9659 37.7477 31.9323C37.4458 32.3947 36.8181 32.4925 36.3713 32.1679C35.9245 31.8433 35.828 31.2193 36.1274 30.7552C37.8185 28.1328 38.799 25.1151 38.9722 21.9995C39.0029 21.4481 39.4477 21 40 21Z" stroke="#29B029" mask="url(#path-4-outside-2_284_3326)"/>
</svg>
