<svg width="308" height="44" viewBox="0 0 308 44" fill="none" xmlns="http://www.w3.org/2000/svg">
<circle cx="20" cy="22" r="20" fill="#29B029"/>
<g clip-path="url(#clip0_282_2333)">
<path fill-rule="evenodd" clip-rule="evenodd" d="M25.0491 12.9059C25.6609 12.2942 26.4864 11.9444 27.3513 11.9301C28.2163 11.9159 29.0528 12.2384 29.6844 12.8296C30.3159 13.4207 30.693 14.2342 30.7358 15.0982C30.7787 15.9622 30.4841 16.809 29.9142 17.4598L29.7642 17.6198L28.9785 18.4054L29.7642 19.1911C30.1578 19.5844 30.3896 20.1111 30.4136 20.6671C30.4377 21.223 30.2523 21.7678 29.8942 22.1937L29.7642 22.3348L25.0491 27.0487C24.8492 27.248 24.5808 27.3637 24.2986 27.3724C24.0164 27.381 23.7415 27.2819 23.5297 27.0951C23.318 26.9084 23.1852 26.6481 23.1585 26.367C23.1317 26.0859 23.2129 25.8052 23.3856 25.5819L23.4778 25.4774L28.1929 20.7635L27.4072 19.9778L16.4292 30.9548C16.2932 31.0904 16.1272 31.192 15.9447 31.2515L15.8046 31.2882L11.9264 32.0649C11.7559 32.0992 11.5799 32.0935 11.412 32.0481C11.2442 32.0027 11.0892 31.919 10.9592 31.8035C10.8293 31.688 10.7279 31.5439 10.6632 31.3825C10.5985 31.2211 10.5721 31.0469 10.5862 30.8737L10.6051 30.7436L11.3808 26.8643C11.4186 26.6756 11.5005 26.4986 11.6197 26.3475L11.7152 26.2397L25.0502 12.9047L25.0491 12.9059ZM26.6215 14.4772L25.8348 15.2628L27.4072 16.8341L28.1929 16.0485C28.4012 15.84 28.5182 15.5572 28.5181 15.2624C28.518 14.9676 28.4008 14.685 28.1923 14.4766C27.9838 14.2682 27.701 14.1512 27.4063 14.1513C27.1115 14.1514 26.8299 14.2686 26.6215 14.4772Z" fill="white"/>
</g>
<path d="M56.994 14V4.2H58.478V14H56.994ZM60.8307 14V7.056H62.1467L62.2587 8.274C62.4733 7.84467 62.786 7.50867 63.1967 7.266C63.6167 7.014 64.0973 6.888 64.6387 6.888C65.4787 6.888 66.1367 7.14933 66.6127 7.672C67.098 8.19467 67.3407 8.974 67.3407 10.01V14H65.8707V10.164C65.8707 8.82 65.32 8.148 64.2187 8.148C63.668 8.148 63.2107 8.344 62.8467 8.736C62.492 9.128 62.3147 9.688 62.3147 10.416V14H60.8307ZM72.7985 14.168C72.1171 14.168 71.5058 14.014 70.9645 13.706C70.4325 13.398 70.0125 12.9733 69.7045 12.432C69.4058 11.8813 69.2565 11.2467 69.2565 10.528C69.2565 9.80933 69.4058 9.17933 69.7045 8.638C70.0125 8.08733 70.4325 7.658 70.9645 7.35C71.5058 7.042 72.1171 6.888 72.7985 6.888C73.6571 6.888 74.3758 7.112 74.9545 7.56C75.5425 8.008 75.9205 8.61467 76.0885 9.38H74.5345C74.4411 8.99733 74.2358 8.69867 73.9185 8.484C73.6011 8.26933 73.2278 8.162 72.7985 8.162C72.4345 8.162 72.0985 8.25533 71.7905 8.442C71.4825 8.61933 71.2351 8.88533 71.0485 9.24C70.8618 9.58533 70.7685 10.0147 70.7685 10.528C70.7685 11.0413 70.8618 11.4753 71.0485 11.83C71.2351 12.1753 71.4825 12.4413 71.7905 12.628C72.0985 12.8147 72.4345 12.908 72.7985 12.908C73.2278 12.908 73.6011 12.8007 73.9185 12.586C74.2358 12.3713 74.4411 12.068 74.5345 11.676H76.0885C75.9298 12.4227 75.5565 13.0247 74.9685 13.482C74.3805 13.9393 73.6571 14.168 72.7985 14.168ZM81.3659 14.168C80.7033 14.168 80.1059 14.0187 79.5739 13.72C79.0513 13.412 78.6359 12.9873 78.3279 12.446C78.0199 11.8953 77.8659 11.256 77.8659 10.528C77.8659 9.8 78.0199 9.16533 78.3279 8.624C78.6453 8.07333 79.0699 7.64867 79.6019 7.35C80.1339 7.042 80.7266 6.888 81.3799 6.888C82.0426 6.888 82.6353 7.042 83.1579 7.35C83.6899 7.64867 84.1099 8.07333 84.4179 8.624C84.7353 9.16533 84.8939 9.8 84.8939 10.528C84.8939 11.256 84.7353 11.8953 84.4179 12.446C84.1099 12.9873 83.6899 13.412 83.1579 13.72C82.6259 14.0187 82.0286 14.168 81.3659 14.168ZM81.3659 12.894C81.7206 12.894 82.0473 12.8053 82.3459 12.628C82.6539 12.4507 82.9013 12.1893 83.0879 11.844C83.2746 11.4893 83.3679 11.0507 83.3679 10.528C83.3679 10.0053 83.2746 9.57133 83.0879 9.226C82.9106 8.87133 82.6679 8.60533 82.3599 8.428C82.0613 8.25067 81.7346 8.162 81.3799 8.162C81.0253 8.162 80.6939 8.25067 80.3859 8.428C80.0873 8.60533 79.8446 8.87133 79.6579 9.226C79.4713 9.57133 79.3779 10.0053 79.3779 10.528C79.3779 11.0507 79.4713 11.4893 79.6579 11.844C79.8446 12.1893 80.0873 12.4507 80.3859 12.628C80.6846 12.8053 81.0113 12.894 81.3659 12.894ZM86.9188 14V7.056H88.2348L88.3608 8.036C88.5848 7.68133 88.8788 7.40133 89.2428 7.196C89.6161 6.99067 90.0454 6.888 90.5308 6.888C91.6321 6.888 92.3974 7.322 92.8268 8.19C93.0788 7.78867 93.4148 7.47133 93.8348 7.238C94.2641 7.00467 94.7261 6.888 95.2208 6.888C96.0888 6.888 96.7701 7.14933 97.2648 7.672C97.7594 8.19467 98.0068 8.974 98.0068 10.01V14H96.5228V10.164C96.5228 8.82 96.0094 8.148 94.9828 8.148C94.4601 8.148 94.0308 8.344 93.6948 8.736C93.3681 9.128 93.2048 9.688 93.2048 10.416V14H91.7208V10.164C91.7208 8.82 91.2028 8.148 90.1668 8.148C89.6534 8.148 89.2288 8.344 88.8928 8.736C88.5661 9.128 88.4028 9.688 88.4028 10.416V14H86.9188ZM103.411 14.168C102.73 14.168 102.123 14.0187 101.591 13.72C101.068 13.412 100.658 12.9873 100.359 12.446C100.06 11.9047 99.911 11.2747 99.911 10.556C99.911 9.828 100.056 9.18867 100.345 8.638C100.644 8.08733 101.054 7.658 101.577 7.35C102.109 7.042 102.725 6.888 103.425 6.888C104.106 6.888 104.699 7.042 105.203 7.35C105.707 7.64867 106.099 8.05 106.379 8.554C106.659 9.058 106.799 9.61333 106.799 10.22C106.799 10.3133 106.794 10.416 106.785 10.528C106.785 10.6307 106.78 10.7473 106.771 10.878H101.367C101.414 11.55 101.633 12.0633 102.025 12.418C102.426 12.7633 102.888 12.936 103.411 12.936C103.831 12.936 104.181 12.8427 104.461 12.656C104.75 12.46 104.965 12.1987 105.105 11.872H106.589C106.402 12.5253 106.029 13.0713 105.469 13.51C104.918 13.9487 104.232 14.168 103.411 14.168ZM103.411 8.106C102.916 8.106 102.478 8.25533 102.095 8.554C101.712 8.84333 101.479 9.282 101.395 9.87H105.315C105.287 9.32867 105.096 8.89933 104.741 8.582C104.386 8.26467 103.943 8.106 103.411 8.106ZM112.706 14V7.056H114.022L114.134 8.274C114.349 7.84467 114.661 7.50867 115.072 7.266C115.492 7.014 115.973 6.888 116.514 6.888C117.354 6.888 118.012 7.14933 118.488 7.672C118.973 8.19467 119.216 8.974 119.216 10.01V14H117.746V10.164C117.746 8.82 117.195 8.148 116.094 8.148C115.543 8.148 115.086 8.344 114.722 8.736C114.367 9.128 114.19 9.688 114.19 10.416V14H112.706ZM123.736 14.168C123.148 14.168 122.663 14.07 122.28 13.874C121.897 13.678 121.613 13.4213 121.426 13.104C121.239 12.7773 121.146 12.4227 121.146 12.04C121.146 11.368 121.407 10.836 121.93 10.444C122.453 10.052 123.199 9.856 124.17 9.856H125.99V9.73C125.99 9.18867 125.841 8.78267 125.542 8.512C125.253 8.24133 124.875 8.106 124.408 8.106C123.997 8.106 123.638 8.20867 123.33 8.414C123.031 8.61 122.849 8.904 122.784 9.296H121.3C121.347 8.792 121.515 8.36267 121.804 8.008C122.103 7.644 122.476 7.36867 122.924 7.182C123.381 6.986 123.881 6.888 124.422 6.888C125.393 6.888 126.144 7.14467 126.676 7.658C127.208 8.162 127.474 8.85267 127.474 9.73V14H126.186L126.06 12.81C125.864 13.1927 125.579 13.5147 125.206 13.776C124.833 14.0373 124.343 14.168 123.736 14.168ZM124.03 12.964C124.431 12.964 124.767 12.8707 125.038 12.684C125.318 12.488 125.533 12.2313 125.682 11.914C125.841 11.5967 125.939 11.2467 125.976 10.864H124.324C123.736 10.864 123.316 10.9667 123.064 11.172C122.821 11.3773 122.7 11.634 122.7 11.942C122.7 12.2593 122.817 12.5113 123.05 12.698C123.293 12.8753 123.619 12.964 124.03 12.964ZM129.624 14V7.056H130.94L131.066 8.036C131.29 7.68133 131.584 7.40133 131.948 7.196C132.322 6.99067 132.751 6.888 133.236 6.888C134.338 6.888 135.103 7.322 135.532 8.19C135.784 7.78867 136.12 7.47133 136.54 7.238C136.97 7.00467 137.432 6.888 137.926 6.888C138.794 6.888 139.476 7.14933 139.97 7.672C140.465 8.19467 140.712 8.974 140.712 10.01V14H139.228V10.164C139.228 8.82 138.715 8.148 137.688 8.148C137.166 8.148 136.736 8.344 136.4 8.736C136.074 9.128 135.91 9.688 135.91 10.416V14H134.426V10.164C134.426 8.82 133.908 8.148 132.872 8.148C132.359 8.148 131.934 8.344 131.598 8.736C131.272 9.128 131.108 9.688 131.108 10.416V14H129.624ZM146.116 14.168C145.435 14.168 144.828 14.0187 144.296 13.72C143.774 13.412 143.363 12.9873 143.064 12.446C142.766 11.9047 142.616 11.2747 142.616 10.556C142.616 9.828 142.761 9.18867 143.05 8.638C143.349 8.08733 143.76 7.658 144.282 7.35C144.814 7.042 145.43 6.888 146.13 6.888C146.812 6.888 147.404 7.042 147.908 7.35C148.412 7.64867 148.804 8.05 149.084 8.554C149.364 9.058 149.504 9.61333 149.504 10.22C149.504 10.3133 149.5 10.416 149.49 10.528C149.49 10.6307 149.486 10.7473 149.476 10.878H144.072C144.119 11.55 144.338 12.0633 144.73 12.418C145.132 12.7633 145.594 12.936 146.116 12.936C146.536 12.936 146.886 12.8427 147.166 12.656C147.456 12.46 147.67 12.1987 147.81 11.872H149.294C149.108 12.5253 148.734 13.0713 148.174 13.51C147.624 13.9487 146.938 14.168 146.116 14.168ZM146.116 8.106C145.622 8.106 145.183 8.25533 144.8 8.554C144.418 8.84333 144.184 9.282 144.1 9.87H148.02C147.992 9.32867 147.801 8.89933 147.446 8.582C147.092 8.26467 146.648 8.106 146.116 8.106Z" fill="black" fill-opacity="0.6"/>
<path d="M57.136 37V25.8H64.256V27.176H58.832V30.664H63.776V32.008H58.832V35.624H64.256V37H57.136ZM66.6926 37V29.064H68.1966L68.3246 30.456C68.57 29.9653 68.9273 29.5813 69.3966 29.304C69.8766 29.016 70.426 28.872 71.0446 28.872C72.0046 28.872 72.7566 29.1707 73.3006 29.768C73.8553 30.3653 74.1326 31.256 74.1326 32.44V37H72.4526V32.616C72.4526 31.08 71.8233 30.312 70.5646 30.312C69.9353 30.312 69.4126 30.536 68.9966 30.984C68.5913 31.432 68.3886 32.072 68.3886 32.904V37H66.6926ZM79.9381 37C79.1595 37 78.5408 36.8133 78.0821 36.44C77.6235 36.056 77.3941 35.3787 77.3941 34.408V30.488H76.0341V29.064H77.3941L77.6021 27.048H79.0901V29.064H81.3301V30.488H79.0901V34.408C79.0901 34.8453 79.1808 35.1493 79.3621 35.32C79.5541 35.48 79.8795 35.56 80.3381 35.56H81.2501V37H79.9381ZM87.0678 37.192C86.2891 37.192 85.5958 37.0213 84.9878 36.68C84.3904 36.328 83.9211 35.8427 83.5798 35.224C83.2384 34.6053 83.0678 33.8853 83.0678 33.064C83.0678 32.232 83.2331 31.5013 83.5638 30.872C83.9051 30.2427 84.3744 29.752 84.9718 29.4C85.5798 29.048 86.2838 28.872 87.0838 28.872C87.8624 28.872 88.5398 29.048 89.1158 29.4C89.6918 29.7413 90.1398 30.2 90.4598 30.776C90.7798 31.352 90.9398 31.9867 90.9398 32.68C90.9398 32.7867 90.9344 32.904 90.9238 33.032C90.9238 33.1493 90.9184 33.2827 90.9078 33.432H84.7318C84.7851 34.2 85.0358 34.7867 85.4838 35.192C85.9424 35.5867 86.4704 35.784 87.0678 35.784C87.5478 35.784 87.9478 35.6773 88.2678 35.464C88.5984 35.24 88.8438 34.9413 89.0038 34.568H90.6998C90.4864 35.3147 90.0598 35.9387 89.4198 36.44C88.7904 36.9413 88.0064 37.192 87.0678 37.192ZM87.0678 30.264C86.5024 30.264 86.0011 30.4347 85.5638 30.776C85.1264 31.1067 84.8598 31.608 84.7638 32.28H89.2438C89.2118 31.6613 88.9931 31.1707 88.5878 30.808C88.1824 30.4453 87.6758 30.264 87.0678 30.264ZM93.1795 37V29.064H94.6995L94.8435 30.568C95.1208 30.0453 95.5048 29.6347 95.9955 29.336C96.4968 29.0267 97.0995 28.872 97.8035 28.872V30.648H97.3395C96.8702 30.648 96.4488 30.728 96.0755 30.888C95.7128 31.0373 95.4195 31.2987 95.1955 31.672C94.9822 32.0347 94.8755 32.5413 94.8755 33.192V37H93.1795ZM104.249 37V29.064H105.753L105.881 30.456C106.126 29.9653 106.484 29.5813 106.953 29.304C107.433 29.016 107.982 28.872 108.601 28.872C109.561 28.872 110.313 29.1707 110.857 29.768C111.412 30.3653 111.689 31.256 111.689 32.44V37H110.009V32.616C110.009 31.08 109.38 30.312 108.121 30.312C107.492 30.312 106.969 30.536 106.553 30.984C106.148 31.432 105.945 32.072 105.945 32.904V37H104.249ZM116.854 37.192C116.182 37.192 115.628 37.08 115.19 36.856C114.753 36.632 114.428 36.3387 114.214 35.976C114.001 35.6027 113.894 35.1973 113.894 34.76C113.894 33.992 114.193 33.384 114.79 32.936C115.388 32.488 116.241 32.264 117.35 32.264H119.43V32.12C119.43 31.5013 119.26 31.0373 118.918 30.728C118.588 30.4187 118.156 30.264 117.622 30.264C117.153 30.264 116.742 30.3813 116.39 30.616C116.049 30.84 115.841 31.176 115.766 31.624H114.07C114.124 31.048 114.316 30.5573 114.646 30.152C114.988 29.736 115.414 29.4213 115.926 29.208C116.449 28.984 117.02 28.872 117.638 28.872C118.748 28.872 119.606 29.1653 120.214 29.752C120.822 30.328 121.126 31.1173 121.126 32.12V37H119.654L119.51 35.64C119.286 36.0773 118.961 36.4453 118.534 36.744C118.108 37.0427 117.548 37.192 116.854 37.192ZM117.19 35.816C117.649 35.816 118.033 35.7093 118.342 35.496C118.662 35.272 118.908 34.9787 119.078 34.616C119.26 34.2533 119.372 33.8533 119.414 33.416H117.526C116.854 33.416 116.374 33.5333 116.086 33.768C115.809 34.0027 115.67 34.296 115.67 34.648C115.67 35.0107 115.804 35.2987 116.07 35.512C116.348 35.7147 116.721 35.816 117.19 35.816ZM123.584 37V29.064H125.088L125.232 30.184C125.488 29.7787 125.824 29.4587 126.24 29.224C126.667 28.9893 127.157 28.872 127.712 28.872C128.971 28.872 129.845 29.368 130.336 30.36C130.624 29.9013 131.008 29.5387 131.488 29.272C131.979 29.0053 132.507 28.872 133.072 28.872C134.064 28.872 134.843 29.1707 135.408 29.768C135.973 30.3653 136.256 31.256 136.256 32.44V37H134.56V32.616C134.56 31.08 133.973 30.312 132.8 30.312C132.203 30.312 131.712 30.536 131.328 30.984C130.955 31.432 130.768 32.072 130.768 32.904V37H129.072V32.616C129.072 31.08 128.48 30.312 127.296 30.312C126.709 30.312 126.224 30.536 125.84 30.984C125.467 31.432 125.28 32.072 125.28 32.904V37H123.584ZM142.432 37.192C141.653 37.192 140.96 37.0213 140.352 36.68C139.755 36.328 139.285 35.8427 138.944 35.224C138.603 34.6053 138.432 33.8853 138.432 33.064C138.432 32.232 138.597 31.5013 138.928 30.872C139.269 30.2427 139.739 29.752 140.336 29.4C140.944 29.048 141.648 28.872 142.448 28.872C143.227 28.872 143.904 29.048 144.48 29.4C145.056 29.7413 145.504 30.2 145.824 30.776C146.144 31.352 146.304 31.9867 146.304 32.68C146.304 32.7867 146.299 32.904 146.288 33.032C146.288 33.1493 146.283 33.2827 146.272 33.432H140.096C140.149 34.2 140.4 34.7867 140.848 35.192C141.307 35.5867 141.835 35.784 142.432 35.784C142.912 35.784 143.312 35.6773 143.632 35.464C143.963 35.24 144.208 34.9413 144.368 34.568H146.064C145.851 35.3147 145.424 35.9387 144.784 36.44C144.155 36.9413 143.371 37.192 142.432 37.192ZM142.432 30.264C141.867 30.264 141.365 30.4347 140.928 30.776C140.491 31.1067 140.224 31.608 140.128 32.28H144.608C144.576 31.6613 144.357 31.1707 143.952 30.808C143.547 30.4453 143.04 30.264 142.432 30.264Z" fill="black" fill-opacity="0.8"/>
<defs>
<clipPath id="clip0_282_2333">
<rect width="26.67" height="26.67" fill="white" transform="translate(7 9)"/>
</clipPath>
</defs>
</svg>
