<svg width="42" height="42" viewBox="0 0 42 42" fill="none" xmlns="http://www.w3.org/2000/svg">
<circle cx="21" cy="21" r="20" fill="#29B029"/>
<path d="M27 12V14H25V12H17V14H15V12H13V30H15V28H17V30H25V28H27V30H29V12H27ZM17 26H15V24H17V26ZM17 22H15V20H17V22ZM17 18H15V16H17V18ZM27 26H25V24H27V26ZM27 22H25V20H27V22ZM27 18H25V16H27V18Z" fill="white"/>
<mask id="path-3-outside-1_284_3313" maskUnits="userSpaceOnUse" x="0" y="0" width="42" height="42" fill="black">
<rect fill="white" width="42" height="42"/>
<path d="M41 21C41 32.0457 32.0457 41 21 41C9.9543 41 1 32.0457 1 21C1 9.9543 9.9543 1 21 1C32.0457 1 41 9.9543 41 21ZM3 21C3 30.9411 11.0589 39 21 39C30.9411 39 39 30.9411 39 21C39 11.0589 30.9411 3 21 3C11.0589 3 3 11.0589 3 21Z"/>
</mask>
<path d="M41 21C41 32.0457 32.0457 41 21 41C9.9543 41 1 32.0457 1 21C1 9.9543 9.9543 1 21 1C32.0457 1 41 9.9543 41 21ZM3 21C3 30.9411 11.0589 39 21 39C30.9411 39 39 30.9411 39 21C39 11.0589 30.9411 3 21 3C11.0589 3 3 11.0589 3 21Z" fill="white" fill-opacity="0.2"/>
<path d="M41 21C41 32.0457 32.0457 41 21 41C9.9543 41 1 32.0457 1 21C1 9.9543 9.9543 1 21 1C32.0457 1 41 9.9543 41 21ZM3 21C3 30.9411 11.0589 39 21 39C30.9411 39 39 30.9411 39 21C39 11.0589 30.9411 3 21 3C11.0589 3 3 11.0589 3 21Z" stroke="#29B029" mask="url(#path-3-outside-1_284_3313)"/>
<mask id="path-4-outside-2_284_3313" maskUnits="userSpaceOnUse" x="35" y="20" width="7" height="13" fill="black">
<rect fill="white" x="35" y="20" width="7" height="13"/>
<path d="M40 21C40.5523 21 41.0026 21.4481 40.975 21.9997C40.798 25.5377 39.6841 28.9659 37.7477 31.9323C37.4458 32.3947 36.8181 32.4925 36.3713 32.1679C35.9245 31.8433 35.828 31.2193 36.1274 30.7552C37.8185 28.1328 38.799 25.1151 38.9722 21.9995C39.0029 21.4481 39.4477 21 40 21Z"/>
</mask>
<path d="M40 21C40.5523 21 41.0026 21.4481 40.975 21.9997C40.798 25.5377 39.6841 28.9659 37.7477 31.9323C37.4458 32.3947 36.8181 32.4925 36.3713 32.1679C35.9245 31.8433 35.828 31.2193 36.1274 30.7552C37.8185 28.1328 38.799 25.1151 38.9722 21.9995C39.0029 21.4481 39.4477 21 40 21Z" fill="white"/>
<path d="M40 21C40.5523 21 41.0026 21.4481 40.975 21.9997C40.798 25.5377 39.6841 28.9659 37.7477 31.9323C37.4458 32.3947 36.8181 32.4925 36.3713 32.1679C35.9245 31.8433 35.828 31.2193 36.1274 30.7552C37.8185 28.1328 38.799 25.1151 38.9722 21.9995C39.0029 21.4481 39.4477 21 40 21Z" stroke="#29B029" mask="url(#path-4-outside-2_284_3313)"/>
</svg>
