<svg width="42" height="42" viewBox="0 0 42 42" fill="none" xmlns="http://www.w3.org/2000/svg">
<circle cx="21" cy="21" r="20" fill="#29B029"/>
<path d="M14.5 29.7734C13.95 29.7734 13.479 29.5778 13.087 29.1864C12.6957 28.7944 12.5 28.3234 12.5 27.7734V17.7734C12.5 17.2234 12.6957 16.7524 13.087 16.3604C13.479 15.9691 13.95 15.7734 14.5 15.7734H16.5V13.7734C16.5 13.2234 16.696 12.7524 17.088 12.3604C17.4793 11.9691 17.95 11.7734 18.5 11.7734H24.5C25.05 11.7734 25.521 11.9691 25.913 12.3604C26.3043 12.7524 26.5 13.2234 26.5 13.7734V19.7734H28.5C29.05 19.7734 29.521 19.9691 29.913 20.3604C30.3043 20.7524 30.5 21.2234 30.5 21.7734V27.7734C30.5 28.3234 30.3043 28.7944 29.913 29.1864C29.521 29.5778 29.05 29.7734 28.5 29.7734H22.5V25.7734H20.5V29.7734H14.5ZM14.5 27.7734H16.5V25.7734H14.5V27.7734ZM14.5 23.7734H16.5V21.7734H14.5V23.7734ZM14.5 19.7734H16.5V17.7734H14.5V19.7734ZM18.5 23.7734H20.5V21.7734H18.5V23.7734ZM18.5 19.7734H20.5V17.7734H18.5V19.7734ZM18.5 15.7734H20.5V13.7734H18.5V15.7734ZM22.5 23.7734H24.5V21.7734H22.5V23.7734ZM22.5 19.7734H24.5V17.7734H22.5V19.7734ZM22.5 15.7734H24.5V13.7734H22.5V15.7734ZM26.5 27.7734H28.5V25.7734H26.5V27.7734ZM26.5 23.7734H28.5V21.7734H26.5V23.7734Z" fill="white"/>
<mask id="path-3-outside-1_323_2399" maskUnits="userSpaceOnUse" x="0" y="0" width="42" height="42" fill="black">
<rect fill="white" width="42" height="42"/>
<path d="M41 21C41 32.0457 32.0457 41 21 41C9.9543 41 1 32.0457 1 21C1 9.9543 9.9543 1 21 1C32.0457 1 41 9.9543 41 21ZM3 21C3 30.9411 11.0589 39 21 39C30.9411 39 39 30.9411 39 21C39 11.0589 30.9411 3 21 3C11.0589 3 3 11.0589 3 21Z"/>
</mask>
<path d="M41 21C41 32.0457 32.0457 41 21 41C9.9543 41 1 32.0457 1 21C1 9.9543 9.9543 1 21 1C32.0457 1 41 9.9543 41 21ZM3 21C3 30.9411 11.0589 39 21 39C30.9411 39 39 30.9411 39 21C39 11.0589 30.9411 3 21 3C11.0589 3 3 11.0589 3 21Z" fill="white" fill-opacity="0.2"/>
<path d="M41 21C41 32.0457 32.0457 41 21 41C9.9543 41 1 32.0457 1 21C1 9.9543 9.9543 1 21 1C32.0457 1 41 9.9543 41 21ZM3 21C3 30.9411 11.0589 39 21 39C30.9411 39 39 30.9411 39 21C39 11.0589 30.9411 3 21 3C11.0589 3 3 11.0589 3 21Z" stroke="#29B029" mask="url(#path-3-outside-1_323_2399)"/>
<mask id="path-4-outside-2_323_2399" maskUnits="userSpaceOnUse" x="14" y="20" width="28" height="22" fill="black">
<rect fill="white" x="14" y="20" width="28" height="22"/>
<path d="M40 21C40.5523 21 41.0026 21.448 40.975 21.9996C40.8343 24.811 40.1015 27.565 38.8201 30.0798C37.3872 32.892 35.3091 35.3252 32.7557 37.1803C30.2023 39.0355 27.246 40.26 24.1287 40.7538C21.341 41.1953 18.4953 41.0412 15.7781 40.3063C15.2449 40.1621 14.958 39.5953 15.1287 39.0701C15.2993 38.5448 15.8629 38.2602 16.3969 38.4015C18.8132 39.0407 21.3399 39.1705 23.8158 38.7784C26.6214 38.334 29.2821 37.232 31.5801 35.5623C33.8782 33.8927 35.7485 31.7028 37.0381 29.1718C38.1762 26.9383 38.8334 24.4951 38.9722 21.9995C39.0029 21.4481 39.4477 21 40 21Z"/>
</mask>
<path d="M40 21C40.5523 21 41.0026 21.448 40.975 21.9996C40.8343 24.811 40.1015 27.565 38.8201 30.0798C37.3872 32.892 35.3091 35.3252 32.7557 37.1803C30.2023 39.0355 27.246 40.26 24.1287 40.7538C21.341 41.1953 18.4953 41.0412 15.7781 40.3063C15.2449 40.1621 14.958 39.5953 15.1287 39.0701C15.2993 38.5448 15.8629 38.2602 16.3969 38.4015C18.8132 39.0407 21.3399 39.1705 23.8158 38.7784C26.6214 38.334 29.2821 37.232 31.5801 35.5623C33.8782 33.8927 35.7485 31.7028 37.0381 29.1718C38.1762 26.9383 38.8334 24.4951 38.9722 21.9995C39.0029 21.4481 39.4477 21 40 21Z" fill="white"/>
<path d="M40 21C40.5523 21 41.0026 21.448 40.975 21.9996C40.8343 24.811 40.1015 27.565 38.8201 30.0798C37.3872 32.892 35.3091 35.3252 32.7557 37.1803C30.2023 39.0355 27.246 40.26 24.1287 40.7538C21.341 41.1953 18.4953 41.0412 15.7781 40.3063C15.2449 40.1621 14.958 39.5953 15.1287 39.0701C15.2993 38.5448 15.8629 38.2602 16.3969 38.4015C18.8132 39.0407 21.3399 39.1705 23.8158 38.7784C26.6214 38.334 29.2821 37.232 31.5801 35.5623C33.8782 33.8927 35.7485 31.7028 37.0381 29.1718C38.1762 26.9383 38.8334 24.4951 38.9722 21.9995C39.0029 21.4481 39.4477 21 40 21Z" stroke="#29B029" mask="url(#path-4-outside-2_323_2399)"/>
</svg>
