<svg width="25" height="24" viewBox="0 0 25 24" fill="none" xmlns="http://www.w3.org/2000/svg">
<g id="Icon">
<path id="Vector" d="M11.6998 9.90039C11.2028 9.90039 10.7998 10.3033 10.7998 10.8004C10.7998 11.2974 11.2028 11.7004 11.6998 11.7004C13.2862 11.7004 14.954 12.6108 15.7911 13.8072C16.0761 14.2145 16.6372 14.3138 17.0445 14.0288C17.4518 13.7438 17.5509 13.1826 17.266 12.7754C16.0959 11.103 13.8804 9.90039 11.6998 9.90039Z" fill="#29B029"/>
<path id="Vector_2" d="M9.00059 6.30078C9.00059 4.64393 10.3437 3.30078 12.0006 3.30078C13.6574 3.30078 15.0006 4.64393 15.0006 6.30078V7.35627C19.0083 8.6206 21.9006 12.3738 21.9006 16.8008C21.9006 17.2978 21.4976 17.7008 21.0006 17.7008H3.00059C2.50353 17.7008 2.10059 17.2978 2.10059 16.8008C2.10059 12.3864 5.00721 8.64913 9.00059 7.37125V6.30078ZM13.2006 6.30078C13.2006 5.63805 12.6633 5.10078 12.0006 5.10078C11.3378 5.10078 10.8006 5.63805 10.8006 6.30078V6.97595C11.2023 6.92634 11.6114 6.9008 12.0263 6.9008C12.4238 6.9008 12.8156 6.92423 13.2006 6.96978V6.30078ZM3.95042 15.9008H20.0515C19.6064 11.8491 16.1916 8.70081 12.0263 8.70081C7.85526 8.70081 4.40127 11.8543 3.95042 15.9008Z" fill="#29B029"/>
<path id="Vector_3" d="M2.4 18.9004C1.07452 18.9004 0 19.9749 0 21.3004C0 22.6259 1.07452 23.7004 2.4 23.7004H21.6C22.9255 23.7004 24 22.6259 24 21.3004C24 19.9749 22.9255 18.9004 21.6 18.9004H2.4ZM1.8 21.3004C1.8 20.9691 2.06863 20.7004 2.4 20.7004H21.6C21.9313 20.7004 22.2 20.9691 22.2 21.3004C22.2 21.6317 21.9313 21.9004 21.6 21.9004H2.4C2.06863 21.9004 1.8 21.6317 1.8 21.3004Z" fill="#29B029"/>
<circle id="Ellipse 25" cx="22" cy="3.60156" r="3" fill="#D90909"/>
</g>
</svg>
