<svg width="41" height="42" viewBox="0 0 41 42" fill="none" xmlns="http://www.w3.org/2000/svg">
<circle cx="20.5" cy="21" r="20" fill="#29B029"/>
<path d="M28.33 16.5L26.06 14.23C26.13 13.81 26.24 13.42 26.38 13.08C26.476 12.8523 26.5142 12.6044 26.4912 12.3583C26.4681 12.1123 26.3846 11.8758 26.2479 11.6698C26.1113 11.4639 25.9259 11.295 25.7081 11.1781C25.4904 11.0612 25.2471 11.0001 25 11C23.36 11 21.91 11.79 21 13H16C12.96 13 10.5 15.46 10.5 18.5C10.5 21.54 13 30 13 30H18.5V28H20.5V30H26L27.68 24.41L30.5 23.47V16.5H28.33ZM21.5 18H16.5V16H21.5V18ZM24.5 20C23.95 20 23.5 19.55 23.5 19C23.5 18.45 23.95 18 24.5 18C25.05 18 25.5 18.45 25.5 19C25.5 19.55 25.05 20 24.5 20Z" fill="white"/>
<mask id="path-3-outside-1_284_3415" maskUnits="userSpaceOnUse" x="-0.5" y="0" width="42" height="42" fill="black">
<rect fill="white" x="-0.5" width="42" height="42"/>
<path d="M40.5 21C40.5 32.0457 31.5457 41 20.5 41C9.4543 41 0.5 32.0457 0.5 21C0.5 9.9543 9.4543 1 20.5 1C31.5457 1 40.5 9.9543 40.5 21ZM2.5 21C2.5 30.9411 10.5589 39 20.5 39C30.4411 39 38.5 30.9411 38.5 21C38.5 11.0589 30.4411 3 20.5 3C10.5589 3 2.5 11.0589 2.5 21Z"/>
</mask>
<path d="M40.5 21C40.5 32.0457 31.5457 41 20.5 41C9.4543 41 0.5 32.0457 0.5 21C0.5 9.9543 9.4543 1 20.5 1C31.5457 1 40.5 9.9543 40.5 21ZM2.5 21C2.5 30.9411 10.5589 39 20.5 39C30.4411 39 38.5 30.9411 38.5 21C38.5 11.0589 30.4411 3 20.5 3C10.5589 3 2.5 11.0589 2.5 21Z" fill="white" fill-opacity="0.2"/>
<path d="M40.5 21C40.5 32.0457 31.5457 41 20.5 41C9.4543 41 0.5 32.0457 0.5 21C0.5 9.9543 9.4543 1 20.5 1C31.5457 1 40.5 9.9543 40.5 21ZM2.5 21C2.5 30.9411 10.5589 39 20.5 39C30.4411 39 38.5 30.9411 38.5 21C38.5 11.0589 30.4411 3 20.5 3C10.5589 3 2.5 11.0589 2.5 21Z" stroke="#29B029" mask="url(#path-3-outside-1_284_3415)"/>
<mask id="path-4-outside-2_284_3415" maskUnits="userSpaceOnUse" x="34.5" y="20" width="7" height="13" fill="black">
<rect fill="white" x="34.5" y="20" width="7" height="13"/>
<path d="M39.5 21C40.0523 21 40.5026 21.4481 40.475 21.9997C40.298 25.5377 39.1841 28.9659 37.2477 31.9323C36.9458 32.3947 36.3181 32.4925 35.8713 32.1679C35.4245 31.8433 35.328 31.2193 35.6274 30.7552C37.3185 28.1328 38.299 25.1151 38.4722 21.9995C38.5029 21.4481 38.9477 21 39.5 21Z"/>
</mask>
<path d="M39.5 21C40.0523 21 40.5026 21.4481 40.475 21.9997C40.298 25.5377 39.1841 28.9659 37.2477 31.9323C36.9458 32.3947 36.3181 32.4925 35.8713 32.1679C35.4245 31.8433 35.328 31.2193 35.6274 30.7552C37.3185 28.1328 38.299 25.1151 38.4722 21.9995C38.5029 21.4481 38.9477 21 39.5 21Z" fill="white"/>
<path d="M39.5 21C40.0523 21 40.5026 21.4481 40.475 21.9997C40.298 25.5377 39.1841 28.9659 37.2477 31.9323C36.9458 32.3947 36.3181 32.4925 35.8713 32.1679C35.4245 31.8433 35.328 31.2193 35.6274 30.7552C37.3185 28.1328 38.299 25.1151 38.4722 21.9995C38.5029 21.4481 38.9477 21 39.5 21Z" stroke="#29B029" mask="url(#path-4-outside-2_284_3415)"/>
</svg>
