<svg width="24" height="25" viewBox="0 0 24 25" fill="none" xmlns="http://www.w3.org/2000/svg">
<g id="Icon">
<path id="Icon/ settings 24" d="M12.0002 8.04116C9.53359 8.04116 7.53401 10.0393 7.53401 12.504C7.53401 14.9688 9.53359 16.9669 12.0002 16.9669C14.4667 16.9669 16.4663 14.9688 16.4663 12.504C16.4663 10.0393 14.4667 8.04116 12.0002 8.04116ZM9.32046 12.504C9.32046 11.0251 10.5202 9.82631 12.0002 9.82631C13.4801 9.82631 14.6798 11.0251 14.6798 12.504C14.6798 13.9829 13.4801 15.1817 12.0002 15.1817C10.5202 15.1817 9.32046 13.9829 9.32046 12.504ZM9.17781 24.668C10.1024 24.8887 11.0498 25.0002 12.0004 25C12.9499 24.9986 13.896 24.8862 14.8194 24.6653C15.0846 24.6026 15.3239 24.4595 15.5044 24.2556C15.6849 24.0517 15.798 23.797 15.8279 23.5264L16.0377 21.6252C16.0677 21.3119 16.2093 21.0199 16.4367 20.8021C16.6641 20.5844 16.9621 20.4555 17.2766 20.439C17.4849 20.4302 17.6924 20.4693 17.8832 20.5532L19.6294 21.3181C19.7963 21.3914 19.9764 21.4293 20.1586 21.4293C20.3409 21.4293 20.5211 21.3914 20.6879 21.3181C20.8524 21.2467 21.0002 21.1418 21.1221 21.0102C22.4123 19.621 23.3754 17.9611 23.941 16.152C24.022 15.8902 24.0195 15.6099 23.9339 15.3497C23.8483 15.0895 23.6838 14.8624 23.4632 14.6997L21.9188 13.5617C21.6645 13.3768 21.4845 13.1074 21.4109 12.8019C21.3375 12.4963 21.3753 12.1746 21.5178 11.8944C21.6133 11.7077 21.7515 11.5462 21.9215 11.4231L23.4579 10.2887C23.6797 10.1266 23.8454 9.89905 23.9314 9.63815C24.0174 9.37725 24.0195 9.09591 23.9374 8.83377C23.3728 7.02431 22.4092 5.36445 21.1176 3.97638C20.9308 3.77684 20.6867 3.64008 20.4189 3.58494C20.1511 3.52978 19.8728 3.55895 19.6223 3.66845L17.8841 4.4325C17.6936 4.51549 17.4862 4.55252 17.2787 4.54059C17.0712 4.52866 16.8694 4.46811 16.6897 4.36384C16.5099 4.25956 16.3572 4.11449 16.244 3.94035C16.1308 3.76621 16.0601 3.56789 16.0377 3.36141L15.827 1.46916C15.7975 1.1952 15.6828 0.937359 15.499 0.731943C15.3152 0.526518 15.0716 0.38385 14.8024 0.324003C13.8852 0.119221 12.9491 0.0106216 12.0093 0C11.064 0.011175 10.1222 0.119756 9.19916 0.324003C8.9295 0.383234 8.68538 0.525983 8.50164 0.731908C8.31746 0.935922 8.20286 1.19318 8.17463 1.46649L7.96293 3.36051C7.9398 3.5673 7.86861 3.76581 7.7549 3.94013C7.64119 4.11445 7.48827 4.25975 7.30829 4.36438C7.1283 4.46901 6.92625 4.53009 6.7184 4.54268C6.51056 4.55529 6.30264 4.51909 6.11132 4.43698L4.3731 3.67202C4.20775 3.60157 4.02985 3.56529 3.8501 3.56529C3.67035 3.56529 3.49247 3.60157 3.32712 3.67202C3.15763 3.74309 3.00534 3.84962 2.88051 3.98442C1.5889 5.37416 0.62478 7.03504 0.0587945 8.84537C-0.0217926 9.10689 -0.0190056 9.38698 0.0667712 9.6469C0.152548 9.90673 0.317081 10.1335 0.537565 10.2958L2.07839 11.4311C2.33162 11.6173 2.51059 11.8872 2.58353 12.1928C2.65647 12.4984 2.61865 12.8199 2.47677 13.1003C2.38311 13.2864 2.24657 13.4476 2.07839 13.5706L0.537565 14.7087C0.31642 14.8712 0.15153 15.0986 0.0658689 15.3593C-0.0197918 15.6199 -0.0219533 15.9008 0.0596789 16.1627C0.625406 17.9741 1.58953 19.6363 2.88141 21.0272C3.00351 21.1579 3.15129 21.2622 3.31551 21.3333C3.48234 21.4054 3.66214 21.4425 3.84386 21.4425C4.02558 21.4425 4.20537 21.4054 4.3722 21.3333L6.11846 20.5666C6.30892 20.4844 6.51605 20.4479 6.72313 20.4602C6.93027 20.4725 7.13161 20.5331 7.31105 20.6373C7.49042 20.7415 7.64289 20.8862 7.75606 21.06C7.86932 21.2337 7.94016 21.4316 7.96293 21.6377L8.17293 23.5353C8.20357 23.8044 8.31647 24.0575 8.49628 24.2602C8.67609 24.4629 8.91404 24.6053 9.17781 24.668ZM14.0915 23.0024C12.7132 23.2849 11.292 23.2849 9.91384 23.0024L9.73966 21.4494C9.65453 20.6896 9.29197 19.9879 8.72128 19.4786C8.27458 19.0855 7.72578 18.8266 7.13813 18.7319C6.55054 18.6371 5.94809 18.7103 5.4003 18.943L3.96578 19.5678C3.04038 18.509 2.32826 17.2815 1.86848 15.9529L3.14043 15.0139C3.5334 14.7246 3.85283 14.347 4.07298 13.9117C4.29311 13.4763 4.40781 12.9954 4.40781 12.5076C4.40781 12.0198 4.29311 11.5389 4.07298 11.1035C3.85283 10.6682 3.5334 10.2906 3.14043 10.0012L1.87026 9.06494C2.33058 7.73769 3.04267 6.51148 3.96757 5.45359L5.39673 6.07839C5.79065 6.25221 6.21664 6.34161 6.64721 6.34082C7.41404 6.33842 8.15328 6.05447 8.72423 5.54299C9.29527 5.0315 9.65819 4.32815 9.74412 3.56671L9.91741 2.00738C10.6084 1.8739 11.31 1.80222 12.0137 1.79317C12.7122 1.80203 13.4084 1.87341 14.0941 2.00648L14.2612 3.55957C14.3437 4.32183 14.7054 5.02663 15.2768 5.53838C15.7238 5.93375 16.2741 6.19403 16.8635 6.28884C17.4529 6.38366 18.0571 6.30912 18.6058 6.07393L20.035 5.44915C20.9608 6.50684 21.6733 7.73341 22.1331 9.06137L20.863 9.995C20.4681 10.2833 20.1467 10.6608 19.9252 11.0966C19.7037 11.5325 19.5882 12.0144 19.5882 12.5031C19.5882 12.9919 19.7037 13.4738 19.9252 13.9096C20.1467 14.3455 20.4681 14.7229 20.863 15.0112L22.1331 15.9476C21.6731 17.2736 20.9623 18.4991 20.0395 19.5571L18.6102 18.9323C18.1631 18.7334 17.6752 18.6431 17.1864 18.6687C16.6976 18.6943 16.2219 18.8352 15.798 19.0797C15.3741 19.3242 15.0141 19.6655 14.7475 20.0756C14.4808 20.4857 14.3151 20.9532 14.2639 21.4395L14.0915 23.0024Z" fill="#29B029"/>
<path id="Icon/ settings 24_2" d="M12.0002 8.04116C9.53359 8.04116 7.53401 10.0393 7.53401 12.504C7.53401 14.9688 9.53359 16.9669 12.0002 16.9669C14.4667 16.9669 16.4663 14.9688 16.4663 12.504C16.4663 10.0393 14.4667 8.04116 12.0002 8.04116ZM9.32046 12.504C9.32046 11.0251 10.5202 9.82631 12.0002 9.82631C13.4801 9.82631 14.6798 11.0251 14.6798 12.504C14.6798 13.9829 13.4801 15.1817 12.0002 15.1817C10.5202 15.1817 9.32046 13.9829 9.32046 12.504ZM9.17781 24.668C10.1024 24.8887 11.0498 25.0002 12.0004 25C12.9499 24.9986 13.896 24.8862 14.8194 24.6653C15.0846 24.6026 15.3239 24.4595 15.5044 24.2556C15.6849 24.0517 15.798 23.797 15.8279 23.5264L16.0377 21.6252C16.0677 21.3119 16.2093 21.0199 16.4367 20.8021C16.6641 20.5844 16.9621 20.4555 17.2766 20.439C17.4849 20.4302 17.6924 20.4693 17.8832 20.5532L19.6294 21.3181C19.7963 21.3914 19.9764 21.4293 20.1586 21.4293C20.3409 21.4293 20.5211 21.3914 20.6879 21.3181C20.8524 21.2467 21.0002 21.1418 21.1221 21.0102C22.4123 19.621 23.3754 17.9611 23.941 16.152C24.022 15.8902 24.0195 15.6099 23.9339 15.3497C23.8483 15.0895 23.6838 14.8624 23.4632 14.6997L21.9188 13.5617C21.6645 13.3768 21.4845 13.1074 21.4109 12.8019C21.3375 12.4963 21.3753 12.1746 21.5178 11.8944C21.6133 11.7077 21.7515 11.5462 21.9215 11.4231L23.4579 10.2887C23.6797 10.1266 23.8454 9.89905 23.9314 9.63815C24.0174 9.37725 24.0195 9.09591 23.9374 8.83377C23.3728 7.02431 22.4092 5.36445 21.1176 3.97638C20.9308 3.77684 20.6867 3.64008 20.4189 3.58494C20.1511 3.52978 19.8728 3.55895 19.6223 3.66845L17.8841 4.4325C17.6936 4.51549 17.4862 4.55252 17.2787 4.54059C17.0712 4.52866 16.8694 4.46811 16.6897 4.36384C16.5099 4.25956 16.3572 4.11449 16.244 3.94035C16.1308 3.76621 16.0601 3.56789 16.0377 3.36141L15.827 1.46916C15.7975 1.1952 15.6828 0.937359 15.499 0.731943C15.3152 0.526518 15.0716 0.38385 14.8024 0.324003C13.8852 0.119221 12.9491 0.0106216 12.0093 0C11.064 0.011175 10.1222 0.119756 9.19916 0.324003C8.9295 0.383234 8.68538 0.525983 8.50164 0.731908C8.31746 0.935922 8.20286 1.19318 8.17463 1.46649L7.96293 3.36051C7.9398 3.5673 7.86861 3.76581 7.7549 3.94013C7.64119 4.11445 7.48827 4.25975 7.30829 4.36438C7.1283 4.46901 6.92625 4.53009 6.7184 4.54268C6.51056 4.55529 6.30264 4.51909 6.11132 4.43698L4.3731 3.67202C4.20775 3.60157 4.02985 3.56529 3.8501 3.56529C3.67035 3.56529 3.49247 3.60157 3.32712 3.67202C3.15763 3.74309 3.00534 3.84962 2.88051 3.98442C1.5889 5.37416 0.62478 7.03504 0.0587945 8.84537C-0.0217926 9.10689 -0.0190056 9.38698 0.0667712 9.6469C0.152548 9.90673 0.317081 10.1335 0.537565 10.2958L2.07839 11.4311C2.33162 11.6173 2.51059 11.8872 2.58353 12.1928C2.65647 12.4984 2.61865 12.8199 2.47677 13.1003C2.38311 13.2864 2.24657 13.4476 2.07839 13.5706L0.537565 14.7087C0.31642 14.8712 0.15153 15.0986 0.0658689 15.3593C-0.0197918 15.6199 -0.0219533 15.9008 0.0596789 16.1627C0.625406 17.9741 1.58953 19.6363 2.88141 21.0272C3.00351 21.1579 3.15129 21.2622 3.31551 21.3333C3.48234 21.4054 3.66214 21.4425 3.84386 21.4425C4.02558 21.4425 4.20537 21.4054 4.3722 21.3333L6.11846 20.5666C6.30892 20.4844 6.51605 20.4479 6.72313 20.4602C6.93027 20.4725 7.13161 20.5331 7.31105 20.6373C7.49042 20.7415 7.64289 20.8862 7.75606 21.06C7.86932 21.2337 7.94016 21.4316 7.96293 21.6377L8.17293 23.5353C8.20357 23.8044 8.31647 24.0575 8.49628 24.2602C8.67609 24.4629 8.91404 24.6053 9.17781 24.668ZM14.0915 23.0024C12.7132 23.2849 11.292 23.2849 9.91384 23.0024L9.73966 21.4494C9.65453 20.6896 9.29197 19.9879 8.72128 19.4786C8.27458 19.0855 7.72578 18.8266 7.13813 18.7319C6.55054 18.6371 5.94809 18.7103 5.4003 18.943L3.96578 19.5678C3.04038 18.509 2.32826 17.2815 1.86848 15.9529L3.14043 15.0139C3.5334 14.7246 3.85283 14.347 4.07298 13.9117C4.29311 13.4763 4.40781 12.9954 4.40781 12.5076C4.40781 12.0198 4.29311 11.5389 4.07298 11.1035C3.85283 10.6682 3.5334 10.2906 3.14043 10.0012L1.87026 9.06494C2.33058 7.73769 3.04267 6.51148 3.96757 5.45359L5.39673 6.07839C5.79065 6.25221 6.21664 6.34161 6.64721 6.34082C7.41404 6.33842 8.15328 6.05447 8.72423 5.54299C9.29527 5.0315 9.65819 4.32815 9.74412 3.56671L9.91741 2.00738C10.6084 1.8739 11.31 1.80222 12.0137 1.79317C12.7122 1.80203 13.4084 1.87341 14.0941 2.00648L14.2612 3.55957C14.3437 4.32183 14.7054 5.02663 15.2768 5.53838C15.7238 5.93375 16.2741 6.19403 16.8635 6.28884C17.4529 6.38366 18.0571 6.30912 18.6058 6.07393L20.035 5.44915C20.9608 6.50684 21.6733 7.73341 22.1331 9.06137L20.863 9.995C20.4681 10.2833 20.1467 10.6608 19.9252 11.0966C19.7037 11.5325 19.5882 12.0144 19.5882 12.5031C19.5882 12.9919 19.7037 13.4738 19.9252 13.9096C20.1467 14.3455 20.4681 14.7229 20.863 15.0112L22.1331 15.9476C21.6731 17.2736 20.9623 18.4991 20.0395 19.5571L18.6102 18.9323C18.1631 18.7334 17.6752 18.6431 17.1864 18.6687C16.6976 18.6943 16.2219 18.8352 15.798 19.0797C15.3741 19.3242 15.0141 19.6655 14.7475 20.0756C14.4808 20.4857 14.3151 20.9532 14.2639 21.4395L14.0915 23.0024Z" fill="#29B029"/>
</g>
</svg>
