<svg width="42" height="42" viewBox="0 0 42 42" fill="none" xmlns="http://www.w3.org/2000/svg">
<circle cx="21" cy="21" r="20" fill="#29B029"/>
<path d="M29.25 12V27C29.25 27.1989 29.171 27.3897 29.0303 27.5303C28.8897 27.671 28.6989 27.75 28.5 27.75H15.75C15.3522 27.75 14.9706 27.908 14.6893 28.1893C14.408 28.4706 14.25 28.8522 14.25 29.25H27C27.1989 29.25 27.3897 29.329 27.5303 29.4697C27.671 29.6103 27.75 29.8011 27.75 30C27.75 30.1989 27.671 30.3897 27.5303 30.5303C27.3897 30.671 27.1989 30.75 27 30.75H13.5C13.3011 30.75 13.1103 30.671 12.9697 30.5303C12.829 30.3897 12.75 30.1989 12.75 30V14.25C12.7525 13.4551 13.0693 12.6935 13.6314 12.1314C14.1935 11.5693 14.9551 11.2525 15.75 11.25H28.5C28.6989 11.25 28.8897 11.329 29.0303 11.4697C29.171 11.6103 29.25 11.8011 29.25 12Z" fill="white"/>
<mask id="path-3-outside-1_284_3300" maskUnits="userSpaceOnUse" x="0" y="0" width="42" height="42" fill="black">
<rect fill="white" width="42" height="42"/>
<path d="M41 21C41 32.0457 32.0457 41 21 41C9.9543 41 1 32.0457 1 21C1 9.9543 9.9543 1 21 1C32.0457 1 41 9.9543 41 21ZM3 21C3 30.9411 11.0589 39 21 39C30.9411 39 39 30.9411 39 21C39 11.0589 30.9411 3 21 3C11.0589 3 3 11.0589 3 21Z"/>
</mask>
<path d="M41 21C41 32.0457 32.0457 41 21 41C9.9543 41 1 32.0457 1 21C1 9.9543 9.9543 1 21 1C32.0457 1 41 9.9543 41 21ZM3 21C3 30.9411 11.0589 39 21 39C30.9411 39 39 30.9411 39 21C39 11.0589 30.9411 3 21 3C11.0589 3 3 11.0589 3 21Z" fill="white" fill-opacity="0.2"/>
<path d="M41 21C41 32.0457 32.0457 41 21 41C9.9543 41 1 32.0457 1 21C1 9.9543 9.9543 1 21 1C32.0457 1 41 9.9543 41 21ZM3 21C3 30.9411 11.0589 39 21 39C30.9411 39 39 30.9411 39 21C39 11.0589 30.9411 3 21 3C11.0589 3 3 11.0589 3 21Z" stroke="#29B029" mask="url(#path-3-outside-1_284_3300)"/>
<mask id="path-4-outside-2_284_3300" maskUnits="userSpaceOnUse" x="35" y="20" width="7" height="13" fill="black">
<rect fill="white" x="35" y="20" width="7" height="13"/>
<path d="M40 21C40.5523 21 41.0026 21.4481 40.975 21.9997C40.798 25.5377 39.6841 28.9659 37.7477 31.9323C37.4458 32.3947 36.8181 32.4925 36.3713 32.1679C35.9245 31.8433 35.828 31.2193 36.1274 30.7552C37.8185 28.1328 38.799 25.1151 38.9722 21.9995C39.0029 21.4481 39.4477 21 40 21Z"/>
</mask>
<path d="M40 21C40.5523 21 41.0026 21.4481 40.975 21.9997C40.798 25.5377 39.6841 28.9659 37.7477 31.9323C37.4458 32.3947 36.8181 32.4925 36.3713 32.1679C35.9245 31.8433 35.828 31.2193 36.1274 30.7552C37.8185 28.1328 38.799 25.1151 38.9722 21.9995C39.0029 21.4481 39.4477 21 40 21Z" fill="white"/>
<path d="M40 21C40.5523 21 41.0026 21.4481 40.975 21.9997C40.798 25.5377 39.6841 28.9659 37.7477 31.9323C37.4458 32.3947 36.8181 32.4925 36.3713 32.1679C35.9245 31.8433 35.828 31.2193 36.1274 30.7552C37.8185 28.1328 38.799 25.1151 38.9722 21.9995C39.0029 21.4481 39.4477 21 40 21Z" stroke="#29B029" mask="url(#path-4-outside-2_284_3300)"/>
</svg>
