<svg width="42" height="42" viewBox="0 0 42 42" fill="none" xmlns="http://www.w3.org/2000/svg">
<circle cx="21" cy="21" r="20" fill="#29B029"/>
<path d="M16.3791 18.1432C16.662 18.146 16.8997 18.2513 17.0923 18.4593C17.2845 18.6677 17.3791 18.9133 17.3763 19.1961L17.3366 23.1911L25.2989 15.3856C25.5012 15.1873 25.7381 15.0895 26.0096 15.0922C26.2802 15.0949 26.5147 15.1974 26.713 15.3997C26.9114 15.602 27.0094 15.8387 27.0072 16.1098C27.004 16.3808 26.9013 16.6155 26.6989 16.8139L18.7367 24.6193L22.767 24.6594C23.0498 24.6622 23.2876 24.7619 23.4803 24.9585C23.6726 25.1547 23.7673 25.3941 23.7645 25.677C23.7617 25.9598 23.662 26.1976 23.4654 26.3903C23.2692 26.5826 23.0298 26.6773 22.7469 26.6745L16.2772 26.6102C16.1358 26.6088 16.0093 26.5811 15.8976 26.5272C15.7864 26.4728 15.6841 26.398 15.5908 26.3028C15.4975 26.2076 15.4247 26.1039 15.3726 25.9916C15.3209 25.8789 15.2958 25.7518 15.2972 25.6104L15.3619 19.1054C15.3645 18.8461 15.4638 18.6203 15.66 18.428C15.8566 18.2353 16.0963 18.1403 16.3791 18.1432Z" fill="white"/>
<mask id="path-3-outside-1_284_3357" maskUnits="userSpaceOnUse" x="0" y="0" width="42" height="42" fill="black">
<rect fill="white" width="42" height="42"/>
<path d="M41 21C41 32.0457 32.0457 41 21 41C9.9543 41 1 32.0457 1 21C1 9.9543 9.9543 1 21 1C32.0457 1 41 9.9543 41 21ZM3 21C3 30.9411 11.0589 39 21 39C30.9411 39 39 30.9411 39 21C39 11.0589 30.9411 3 21 3C11.0589 3 3 11.0589 3 21Z"/>
</mask>
<path d="M41 21C41 32.0457 32.0457 41 21 41C9.9543 41 1 32.0457 1 21C1 9.9543 9.9543 1 21 1C32.0457 1 41 9.9543 41 21ZM3 21C3 30.9411 11.0589 39 21 39C30.9411 39 39 30.9411 39 21C39 11.0589 30.9411 3 21 3C11.0589 3 3 11.0589 3 21Z" fill="white" fill-opacity="0.2"/>
<path d="M41 21C41 32.0457 32.0457 41 21 41C9.9543 41 1 32.0457 1 21C1 9.9543 9.9543 1 21 1C32.0457 1 41 9.9543 41 21ZM3 21C3 30.9411 11.0589 39 21 39C30.9411 39 39 30.9411 39 21C39 11.0589 30.9411 3 21 3C11.0589 3 3 11.0589 3 21Z" stroke="#29B029" mask="url(#path-3-outside-1_284_3357)"/>
<mask id="path-4-outside-2_284_3357" maskUnits="userSpaceOnUse" x="35" y="20" width="7" height="13" fill="black">
<rect fill="white" x="35" y="20" width="7" height="13"/>
<path d="M40 21C40.5523 21 41.0026 21.4481 40.975 21.9997C40.798 25.5377 39.6841 28.9659 37.7477 31.9323C37.4458 32.3947 36.8181 32.4925 36.3713 32.1679C35.9245 31.8433 35.828 31.2193 36.1274 30.7552C37.8185 28.1328 38.799 25.1151 38.9722 21.9995C39.0029 21.4481 39.4477 21 40 21Z"/>
</mask>
<path d="M40 21C40.5523 21 41.0026 21.4481 40.975 21.9997C40.798 25.5377 39.6841 28.9659 37.7477 31.9323C37.4458 32.3947 36.8181 32.4925 36.3713 32.1679C35.9245 31.8433 35.828 31.2193 36.1274 30.7552C37.8185 28.1328 38.799 25.1151 38.9722 21.9995C39.0029 21.4481 39.4477 21 40 21Z" fill="white"/>
<path d="M40 21C40.5523 21 41.0026 21.4481 40.975 21.9997C40.798 25.5377 39.6841 28.9659 37.7477 31.9323C37.4458 32.3947 36.8181 32.4925 36.3713 32.1679C35.9245 31.8433 35.828 31.2193 36.1274 30.7552C37.8185 28.1328 38.799 25.1151 38.9722 21.9995C39.0029 21.4481 39.4477 21 40 21Z" stroke="#29B029" mask="url(#path-4-outside-2_284_3357)"/>
</svg>
